<svg width="502" height="502" viewBox="0 0 502 502" fill="none" xmlns="http://www.w3.org/2000/svg">
<path d="M172.145 413.143L140.848 413.208L140.714 347.892C140.696 338.154 132.772 330.254 123.035 330.254H123.003C118.272 330.254 113.843 332.115 110.515 335.462C107.187 338.81 105.346 343.257 105.36 347.975L105.498 412.921L73.2873 412.99L73.1531 348.044C73.135 338.302 65.2111 330.391 55.4746 330.391H55.4419C50.7114 330.406 46.2819 332.248 42.954 335.599C39.6264 338.944 37.7994 343.394 37.7994 348.109L37.9372 413.073L4.24019 413.142L3.98657 302.441L35.7879 302.372L35.8242 318.69L37.3285 316.659C37.4627 316.492 49.9179 300.123 68.2669 300.091C81.8386 300.004 93.4491 306.583 99.2272 317.522L99.7674 318.556L101.729 316.507C110.178 307.631 117.46 299.989 136.709 299.938H136.81C147.254 299.938 156.124 303.591 162.496 310.504C168.597 317.116 171.957 326.434 171.993 336.731L172.145 413.143ZM425.311 357.923C425.311 389.073 405.909 415.168 375.18 415.168C350.117 415.369 338.393 399.797 338.393 399.797V413.144H306.657L306.451 265.892H338.594V313.632C338.594 313.632 352.14 299.675 372.553 299.675H372.755C406.719 299.675 425.311 329.607 425.311 357.923ZM395.965 357.505C395.965 342.278 383.628 329.934 368.41 329.934C353.191 329.934 340.855 342.277 340.855 357.505C340.855 372.732 353.191 385.076 368.41 385.076C383.628 385.076 395.965 372.732 395.965 357.505ZM300.196 357.721C300.196 385.84 281.8 415.978 247.64 415.978H247.439C227.02 415.978 213.681 402.022 213.681 402.022L213.474 449.751H181.336L181.739 302.303L213.278 302.505V315.857C213.278 315.857 225.203 300.28 250.065 300.28C280.995 300.279 300.398 326.375 300.196 357.721ZM270.849 358.488C270.849 343.26 258.513 330.916 243.295 330.916C228.076 330.916 215.74 343.26 215.74 358.488C215.74 373.715 228.076 386.059 243.295 386.059C258.513 386.059 270.849 373.715 270.849 358.488Z" fill="#0B002B"/>
<path d="M37.8818 123.459C18.2294 123.459 2.29785 107.518 2.29785 87.8535C2.29785 68.1893 18.2294 52.2483 37.8818 52.2483C57.5343 52.2483 73.4658 68.1893 73.4658 87.8535C73.4658 107.518 57.5343 123.459 37.8818 123.459ZM144.633 87.8535C144.633 68.1893 128.702 52.2483 109.05 52.2483C89.3971 52.2483 73.4655 68.1893 73.4655 87.8535C73.4655 107.518 89.3971 123.459 109.05 123.459C128.702 123.459 144.633 107.518 144.633 87.8535ZM215.801 87.8535C215.801 68.1893 199.87 52.2483 180.217 52.2483C160.565 52.2483 144.633 68.1893 144.633 87.8535C144.633 107.518 160.565 123.459 180.217 123.459C199.87 123.459 215.801 107.518 215.801 87.8535ZM286.969 87.8535C286.969 68.1893 271.038 52.2483 251.385 52.2483C231.733 52.2483 215.801 68.1893 215.801 87.8535C215.801 107.518 231.733 123.459 251.385 123.459C271.038 123.459 286.969 107.518 286.969 87.8535ZM358.137 87.8535C358.137 68.1893 342.206 52.2483 322.553 52.2483C302.901 52.2483 286.969 68.1893 286.969 87.8535C286.969 107.518 302.901 123.459 322.553 123.459C342.206 123.459 358.137 107.518 358.137 87.8535ZM429.305 87.8535C429.305 68.1893 413.374 52.2483 393.721 52.2483C374.069 52.2483 358.137 68.1893 358.137 87.8535C358.137 107.518 374.069 123.459 393.721 123.459C413.374 123.459 429.305 107.518 429.305 87.8535ZM73.4658 159.075C73.4658 139.41 57.5343 123.469 37.8818 123.469C18.2294 123.469 2.29785 139.41 2.29785 159.075C2.29785 178.739 18.2294 194.68 37.8818 194.68C57.5343 194.68 73.4658 178.739 73.4658 159.075ZM144.633 159.075C144.633 139.41 128.702 123.469 109.05 123.469C89.3971 123.469 73.4655 139.41 73.4655 159.075C73.4655 178.739 89.3971 194.68 109.05 194.68C128.702 194.68 144.633 178.739 144.633 159.075ZM215.801 159.075C215.801 139.41 199.87 123.469 180.217 123.469C160.565 123.469 144.633 139.41 144.633 159.075C144.633 178.739 160.565 194.68 180.217 194.68C199.87 194.68 215.801 178.739 215.801 159.075ZM286.969 159.075C286.969 139.41 271.038 123.469 251.385 123.469C231.733 123.469 215.801 139.41 215.801 159.075C215.801 178.739 231.733 194.68 251.385 194.68C271.038 194.68 286.969 178.739 286.969 159.075ZM358.137 159.075C358.137 139.41 342.206 123.469 322.553 123.469C302.901 123.469 286.969 139.41 286.969 159.075C286.969 178.739 302.901 194.68 322.553 194.68C342.206 194.68 358.137 178.739 358.137 159.075ZM429.305 159.075C429.305 139.41 413.374 123.469 393.721 123.469C374.069 123.469 358.137 139.41 358.137 159.075C358.137 178.739 374.069 194.68 393.721 194.68C413.374 194.68 429.305 178.739 429.305 159.075ZM73.4658 230.296C73.4658 210.631 57.5343 194.69 37.8818 194.69C18.2294 194.69 2.29785 210.631 2.29785 230.296C2.29785 249.96 18.2294 265.901 37.8818 265.901C57.5343 265.901 73.4658 249.96 73.4658 230.296ZM215.812 230.296C215.812 210.631 199.88 194.69 180.228 194.69C160.575 194.69 144.644 210.631 144.644 230.296C144.644 249.96 160.575 265.901 180.228 265.901C199.88 265.901 215.812 249.96 215.812 230.296ZM286.984 230.296C286.984 210.631 271.053 194.69 251.4 194.69C231.748 194.69 215.817 210.631 215.817 230.296C215.817 249.96 231.748 265.901 251.4 265.901C271.053 265.901 286.984 249.96 286.984 230.296ZM429.33 230.296C429.33 210.631 413.399 194.69 393.746 194.69C374.094 194.69 358.163 210.631 358.163 230.296C358.163 249.96 374.094 265.901 393.746 265.901C413.399 265.901 429.33 249.96 429.33 230.296ZM500.473 159.075C500.473 139.41 484.541 123.469 464.889 123.469C445.237 123.469 429.305 139.41 429.305 159.075C429.305 178.739 445.237 194.68 464.889 194.68C484.541 194.68 500.473 178.739 500.473 159.075ZM500.702 230.296C500.702 210.631 484.77 194.69 465.118 194.69C445.466 194.69 429.534 210.631 429.534 230.296C429.534 249.96 445.466 265.901 465.118 265.901C484.77 265.901 500.702 249.96 500.702 230.296Z" fill="#FF18BD"/>
</svg>
