<svg width="1682" height="367" viewBox="0 0 1682 367" fill="none" xmlns="http://www.w3.org/2000/svg">
<path d="M157.12 332.266L128.387 332.326L128.264 272.399C128.247 263.463 120.973 256.215 112.034 256.215H112.004C107.662 256.215 103.595 257.923 100.54 260.994C97.4849 264.066 95.7943 268.146 95.8077 272.475L95.9342 332.063L66.3633 332.126L66.2401 272.538C66.2234 263.6 58.9489 256.341 50.0104 256.341H49.9803C45.6376 256.355 41.571 258.045 38.5159 261.12C35.4609 264.188 33.7837 268.272 33.7837 272.598L33.9103 332.202L2.97477 332.265L2.74194 230.697L31.937 230.634L31.9704 245.606L33.3514 243.742C33.4746 243.589 44.909 228.571 61.7543 228.541C74.2138 228.461 84.8727 234.498 90.1773 244.534L90.6732 245.483L92.4737 243.603C100.231 235.459 106.916 228.448 124.587 228.401H124.68C134.268 228.401 142.411 231.752 148.261 238.095C153.862 244.162 156.947 252.711 156.98 262.159L157.12 332.266ZM389.538 281.602C389.538 310.182 371.726 334.124 343.515 334.124C320.506 334.309 309.742 320.021 309.742 320.021V332.267H280.608L280.419 197.164H309.927V240.965C309.927 240.965 322.363 228.16 341.104 228.16H341.288C372.469 228.16 389.538 255.622 389.538 281.602ZM362.596 281.218C362.596 267.247 351.271 255.922 337.3 255.922C323.328 255.922 312.003 267.247 312.003 281.218C312.003 295.19 323.328 306.515 337.3 306.515C351.271 306.515 362.596 295.19 362.596 281.218ZM274.677 281.417C274.677 307.216 257.788 334.868 226.427 334.868H226.242C207.497 334.868 195.251 322.063 195.251 322.063L195.062 365.855H165.557L165.927 230.571L194.881 230.756V243.007C194.881 243.007 205.829 228.714 228.654 228.714C257.049 228.714 274.861 252.656 274.677 281.417ZM247.734 282.12C247.734 268.149 236.409 256.823 222.438 256.823C208.467 256.823 197.141 268.149 197.141 282.12C197.141 296.091 208.467 307.416 222.438 307.416C236.409 307.416 247.734 296.091 247.734 282.12Z" fill="#0B002B"/>
<path d="M33.8594 66.4809C15.8176 66.4809 1.19165 51.855 1.19165 33.8131C1.19165 15.7713 15.8176 1.14539 33.8594 1.14539C51.9013 1.14539 66.5272 15.7713 66.5272 33.8131C66.5272 51.855 51.9013 66.4809 33.8594 66.4809ZM131.862 33.8131C131.862 15.7713 117.237 1.14539 99.1947 1.14539C81.1528 1.14539 66.5269 15.7713 66.5269 33.8131C66.5269 51.855 81.1528 66.4809 99.1947 66.4809C117.237 66.4809 131.862 51.855 131.862 33.8131ZM197.198 33.8131C197.198 15.7713 182.572 1.14539 164.53 1.14539C146.488 1.14539 131.862 15.7713 131.862 33.8131C131.862 51.855 146.488 66.4809 164.53 66.4809C182.572 66.4809 197.198 51.855 197.198 33.8131ZM262.534 33.8131C262.534 15.7713 247.908 1.14539 229.866 1.14539C211.824 1.14539 197.198 15.7713 197.198 33.8131C197.198 51.855 211.824 66.4809 229.866 66.4809C247.908 66.4809 262.534 51.855 262.534 33.8131ZM327.869 33.8131C327.869 15.7713 313.243 1.14539 295.201 1.14539C277.159 1.14539 262.533 15.7713 262.533 33.8131C262.533 51.855 277.159 66.4809 295.201 66.4809C313.243 66.4809 327.869 51.855 327.869 33.8131ZM393.204 33.8131C393.204 15.7713 378.578 1.14539 360.537 1.14539C342.495 1.14539 327.869 15.7713 327.869 33.8131C327.869 51.855 342.495 66.4809 360.537 66.4809C378.578 66.4809 393.204 51.855 393.204 33.8131ZM66.5272 99.1584C66.5272 81.1166 51.9013 66.4907 33.8594 66.4907C15.8176 66.4907 1.19165 81.1166 1.19165 99.1584C1.19165 117.2 15.8176 131.826 33.8594 131.826C51.9013 131.826 66.5272 117.2 66.5272 99.1584ZM131.862 99.1584C131.862 81.1166 117.237 66.4907 99.1947 66.4907C81.1528 66.4907 66.5269 81.1166 66.5269 99.1584C66.5269 117.2 81.1528 131.826 99.1947 131.826C117.237 131.826 131.862 117.2 131.862 99.1584ZM197.198 99.1584C197.198 81.1166 182.572 66.4907 164.53 66.4907C146.488 66.4907 131.862 81.1166 131.862 99.1584C131.862 117.2 146.488 131.826 164.53 131.826C182.572 131.826 197.198 117.2 197.198 99.1584ZM262.534 99.1584C262.534 81.1166 247.908 66.4907 229.866 66.4907C211.824 66.4907 197.198 81.1166 197.198 99.1584C197.198 117.2 211.824 131.826 229.866 131.826C247.908 131.826 262.534 117.2 262.534 99.1584ZM327.869 99.1584C327.869 81.1166 313.243 66.4907 295.201 66.4907C277.159 66.4907 262.533 81.1166 262.533 99.1584C262.533 117.2 277.159 131.826 295.201 131.826C313.243 131.826 327.869 117.2 327.869 99.1584ZM393.204 99.1584C393.204 81.1166 378.578 66.4907 360.537 66.4907C342.495 66.4907 327.869 81.1166 327.869 99.1584C327.869 117.2 342.495 131.826 360.537 131.826C378.578 131.826 393.204 117.2 393.204 99.1584ZM66.5272 164.504C66.5272 146.462 51.9013 131.836 33.8594 131.836C15.8176 131.836 1.19165 146.462 1.19165 164.504C1.19165 182.546 15.8176 197.171 33.8594 197.171C51.9013 197.171 66.5272 182.546 66.5272 164.504ZM197.207 164.504C197.207 146.462 182.581 131.836 164.54 131.836C146.498 131.836 131.872 146.462 131.872 164.504C131.872 182.546 146.498 197.171 164.54 197.171C182.581 197.171 197.207 182.546 197.207 164.504ZM262.547 164.504C262.547 146.462 247.921 131.836 229.88 131.836C211.838 131.836 197.212 146.462 197.212 164.504C197.212 182.546 211.838 197.171 229.88 197.171C247.921 197.171 262.547 182.546 262.547 164.504ZM393.228 164.504C393.228 146.462 378.602 131.836 360.56 131.836C342.518 131.836 327.892 146.462 327.892 164.504C327.892 182.546 342.518 197.171 360.56 197.171C378.602 197.171 393.228 182.546 393.228 164.504ZM458.54 99.1584C458.54 81.1166 443.914 66.4907 425.872 66.4907C407.83 66.4907 393.204 81.1166 393.204 99.1584C393.204 117.2 407.83 131.826 425.872 131.826C443.914 131.826 458.54 117.2 458.54 99.1584ZM458.75 164.504C458.75 146.462 444.124 131.836 426.082 131.836C408.04 131.836 393.415 146.462 393.415 164.504C393.415 182.546 408.04 197.171 426.082 197.171C444.124 197.171 458.75 182.546 458.75 164.504Z" fill="#FF18BD"/>
</svg>
